<svg width="41" height="219" viewBox="0 0 41 219" fill="none" xmlns="http://www.w3.org/2000/svg">
<path d="M25.758 16.594H24.722V12.352H21.432V15.796H20.396V12.352H16V11.078H25.758V16.594ZM15.874 21.4787C15.874 20.76 16.0373 20.1067 16.364 19.5187C16.6907 18.94 17.1527 18.4827 17.75 18.1467C18.3567 17.82 19.0567 17.6567 19.85 17.6567C20.634 17.6567 21.3247 17.8247 21.922 18.1607C22.5287 18.506 22.9907 18.9727 23.308 19.5607C23.6347 20.1487 23.798 20.8067 23.798 21.5347C23.798 22.2627 23.6347 22.9207 23.308 23.5087C22.9907 24.0967 22.5333 24.5587 21.936 24.8947C21.3387 25.24 20.6433 25.4127 19.85 25.4127C19.0567 25.4127 18.3567 25.2354 17.75 24.8807C17.1527 24.5354 16.6907 24.064 16.364 23.4667C16.0373 22.8694 15.874 22.2067 15.874 21.4787ZM16.994 21.4787C16.994 21.936 17.1013 22.3654 17.316 22.7667C17.5307 23.168 17.8527 23.49 18.282 23.7327C18.7113 23.9847 19.234 24.1107 19.85 24.1107C20.466 24.1107 20.9887 23.9894 21.418 23.7467C21.8473 23.504 22.1647 23.1867 22.37 22.7947C22.5847 22.4027 22.692 21.978 22.692 21.5207C22.692 21.054 22.5847 20.6247 22.37 20.2327C22.1647 19.85 21.8473 19.542 21.418 19.3087C20.9887 19.0754 20.466 18.9587 19.85 18.9587C19.2247 18.9587 18.6973 19.0707 18.268 19.2947C17.8387 19.528 17.5167 19.836 17.302 20.2187C17.0967 20.6014 16.994 21.0214 16.994 21.4787ZM26.36 28.3618H16V27.0878H26.36V28.3618ZM26.36 31.8071H16V30.5331H26.36V31.8071ZM15.874 37.3244C15.874 36.6057 16.0373 35.9524 16.364 35.3644C16.6907 34.7857 17.1527 34.3284 17.75 33.9924C18.3567 33.6657 19.0567 33.5024 19.85 33.5024C20.634 33.5024 21.3247 33.6704 21.922 34.0064C22.5287 34.3517 22.9907 34.8184 23.308 35.4064C23.6347 35.9944 23.798 36.6524 23.798 37.3804C23.798 38.1084 23.6347 38.7664 23.308 39.3544C22.9907 39.9424 22.5333 40.4044 21.936 40.7404C21.3387 41.0857 20.6433 41.2584 19.85 41.2584C19.0567 41.2584 18.3567 41.0811 17.75 40.7264C17.1527 40.3811 16.6907 39.9097 16.364 39.3124C16.0373 38.7151 15.874 38.0524 15.874 37.3244ZM16.994 37.3244C16.994 37.7817 17.1013 38.2111 17.316 38.6124C17.5307 39.0137 17.8527 39.3357 18.282 39.5784C18.7113 39.8304 19.234 39.9564 19.85 39.9564C20.466 39.9564 20.9887 39.8351 21.418 39.5924C21.8473 39.3497 22.1647 39.0324 22.37 38.6404C22.5847 38.2484 22.692 37.8237 22.692 37.3664C22.692 36.8997 22.5847 36.4704 22.37 36.0784C22.1647 35.6957 21.8473 35.3877 21.418 35.1544C20.9887 34.9211 20.466 34.8044 19.85 34.8044C19.2247 34.8044 18.6973 34.9164 18.268 35.1404C17.8387 35.3737 17.5167 35.6817 17.302 36.0644C17.0967 36.4471 16.994 36.8671 16.994 37.3244ZM23.672 53.1535L16 50.7595V49.4435L22.09 47.5955L16 45.7475V44.4315L23.672 42.0235V43.3255L17.232 45.0895L23.672 46.9935V48.2955L17.218 50.1575L23.672 51.8935V53.1535ZM23.812 67.3763C23.812 67.9736 23.686 68.5056 23.434 68.9723C23.1913 69.4389 22.8227 69.8076 22.328 70.0783C21.8333 70.3489 21.2313 70.4843 20.522 70.4843H16V69.2243H20.34C21.1053 69.2243 21.6887 69.0329 22.09 68.6503C22.5007 68.2769 22.706 67.7683 22.706 67.1243C22.706 66.4616 22.4913 65.9343 22.062 65.5423C21.642 65.1503 21.0307 64.9543 20.228 64.9543H16V63.6943H20.34C21.1053 63.6943 21.6887 63.5029 22.09 63.1203C22.5007 62.7469 22.706 62.2383 22.706 61.5943C22.706 60.9316 22.4913 60.4043 22.062 60.0123C21.642 59.6203 21.0307 59.4243 20.228 59.4243H16V58.1503H23.672V59.4243H22.566C22.9673 59.6763 23.2753 60.0123 23.49 60.4323C23.7047 60.8616 23.812 61.3329 23.812 61.8463C23.812 62.4903 23.6673 63.0596 23.378 63.5543C23.0887 64.0489 22.664 64.4176 22.104 64.6603C22.6453 64.8749 23.0653 65.2296 23.364 65.7243C23.6627 66.2189 23.812 66.7696 23.812 67.3763ZM20.13 79.5741C19.8873 79.5741 19.6307 79.5601 19.36 79.5321V73.4001C18.604 73.4468 18.0113 73.7034 17.582 74.1701C17.162 74.6461 16.952 75.2201 16.952 75.8921C16.952 76.4428 17.078 76.9001 17.33 77.2641C17.5913 77.6374 17.9367 77.8988 18.366 78.0481V79.4201C17.6287 79.2148 17.0267 78.8041 16.56 78.1881C16.1027 77.5721 15.874 76.8068 15.874 75.8921C15.874 75.1641 16.0373 74.5108 16.364 73.9321C16.6907 73.3628 17.1527 72.9148 17.75 72.5881C18.3567 72.2614 19.0567 72.0981 19.85 72.0981C20.6433 72.0981 21.3387 72.2568 21.936 72.5741C22.5333 72.8914 22.9907 73.3348 23.308 73.9041C23.6347 74.4828 23.798 75.1454 23.798 75.8921C23.798 76.6201 23.6393 77.2641 23.322 77.8241C23.0047 78.3841 22.566 78.8134 22.006 79.1121C21.4553 79.4201 20.83 79.5741 20.13 79.5741ZM20.396 78.2581C20.8813 78.2581 21.2967 78.1508 21.642 77.9361C21.9967 77.7214 22.2627 77.4274 22.44 77.0541C22.6267 76.6901 22.72 76.2841 22.72 75.8361C22.72 75.1921 22.5147 74.6414 22.104 74.1841C21.6933 73.7361 21.124 73.4794 20.396 73.4141V78.2581ZM15.874 88.3342C15.874 87.6155 16.0373 86.9622 16.364 86.3742C16.6907 85.7955 17.1527 85.3382 17.75 85.0022C18.3567 84.6755 19.0567 84.5122 19.85 84.5122C20.634 84.5122 21.3247 84.6802 21.922 85.0162C22.5287 85.3615 22.9907 85.8282 23.308 86.4162C23.6347 87.0042 23.798 87.6622 23.798 88.3902C23.798 89.1182 23.6347 89.7762 23.308 90.3642C22.9907 90.9522 22.5333 91.4142 21.936 91.7502C21.3387 92.0955 20.6433 92.2682 19.85 92.2682C19.0567 92.2682 18.3567 92.0908 17.75 91.7362C17.1527 91.3908 16.6907 90.9195 16.364 90.3222C16.0373 89.7248 15.874 89.0622 15.874 88.3342ZM16.994 88.3342C16.994 88.7915 17.1013 89.2208 17.316 89.6222C17.5307 90.0235 17.8527 90.3455 18.282 90.5882C18.7113 90.8402 19.234 90.9662 19.85 90.9662C20.466 90.9662 20.9887 90.8448 21.418 90.6022C21.8473 90.3595 22.1647 90.0422 22.37 89.6502C22.5847 89.2582 22.692 88.8335 22.692 88.3762C22.692 87.9095 22.5847 87.4802 22.37 87.0882C22.1647 86.7055 21.8473 86.3975 21.418 86.1642C20.9887 85.9308 20.466 85.8142 19.85 85.8142C19.2247 85.8142 18.6973 85.9262 18.268 86.1502C17.8387 86.3835 17.5167 86.6915 17.302 87.0742C17.0967 87.4568 16.994 87.8768 16.994 88.3342ZM23.812 97.6812C23.812 98.6146 23.5273 99.3706 22.958 99.9492C22.398 100.528 21.586 100.817 20.522 100.817H16V99.5572H20.34C21.1053 99.5572 21.6887 99.3659 22.09 98.9832C22.5007 98.6006 22.706 98.0779 22.706 97.4152C22.706 96.7432 22.496 96.2066 22.076 95.8052C21.656 95.4132 21.0447 95.2172 20.242 95.2172H16V93.9432H23.672V95.2172H22.58C22.972 95.4692 23.2753 95.8099 23.49 96.2392C23.7047 96.6779 23.812 97.1586 23.812 97.6812ZM15.916 107.037C15.916 106.794 16 106.589 16.168 106.421C16.336 106.253 16.5413 106.169 16.784 106.169C17.0267 106.169 17.232 106.253 17.4 106.421C17.568 106.589 17.652 106.794 17.652 107.037C17.652 107.27 17.568 107.466 17.4 107.625C17.232 107.793 17.0267 107.877 16.784 107.877C16.5413 107.877 16.336 107.793 16.168 107.625C16 107.466 15.916 107.27 15.916 107.037ZM21.908 107.037C21.908 106.794 21.992 106.589 22.16 106.421C22.328 106.253 22.5333 106.169 22.776 106.169C23.0187 106.169 23.224 106.253 23.392 106.421C23.56 106.589 23.644 106.794 23.644 107.037C23.644 107.27 23.56 107.466 23.392 107.625C23.224 107.793 23.0187 107.877 22.776 107.877C22.5333 107.877 22.328 107.793 22.16 107.625C21.992 107.466 21.908 107.27 21.908 107.037Z" fill="white"/>
<line x1="21" y1="139" x2="21" y2="209" stroke="white"/>
</svg>
